<svg id="visual" viewBox="0 0 900 600" width="900" height="600" xmlns="http://www.w3.org/2000/svg" xmlns:xlink="http://www.w3.org/1999/xlink" version="1.1"><rect x="0" y="0" width="900" height="600" fill="#e7f4ff"></rect><defs><linearGradient id="grad1_0" x1="33.3%" y1="0%" x2="100%" y2="100%"><stop offset="20%" stop-color="#afffff" stop-opacity="1"></stop><stop offset="80%" stop-color="#afffff" stop-opacity="1"></stop></linearGradient></defs><defs><linearGradient id="grad1_1" x1="33.3%" y1="0%" x2="100%" y2="100%"><stop offset="20%" stop-color="#afffff" stop-opacity="1"></stop><stop offset="80%" stop-color="#c1fbff" stop-opacity="1"></stop></linearGradient></defs><defs><linearGradient id="grad1_2" x1="33.3%" y1="0%" x2="100%" y2="100%"><stop offset="20%" stop-color="#d6f7ff" stop-opacity="1"></stop><stop offset="80%" stop-color="#c1fbff" stop-opacity="1"></stop></linearGradient></defs><defs><linearGradient id="grad1_3" x1="33.3%" y1="0%" x2="100%" y2="100%"><stop offset="20%" stop-color="#d6f7ff" stop-opacity="1"></stop><stop offset="80%" stop-color="#e7f4ff" stop-opacity="1"></stop></linearGradient></defs><defs><linearGradient id="grad2_0" x1="0%" y1="0%" x2="66.7%" y2="100%"><stop offset="20%" stop-color="#afffff" stop-opacity="1"></stop><stop offset="80%" stop-color="#afffff" stop-opacity="1"></stop></linearGradient></defs><defs><linearGradient id="grad2_1" x1="0%" y1="0%" x2="66.7%" y2="100%"><stop offset="20%" stop-color="#c1fbff" stop-opacity="1"></stop><stop offset="80%" stop-color="#afffff" stop-opacity="1"></stop></linearGradient></defs><defs><linearGradient id="grad2_2" x1="0%" y1="0%" x2="66.7%" y2="100%"><stop offset="20%" stop-color="#c1fbff" stop-opacity="1"></stop><stop offset="80%" stop-color="#d6f7ff" stop-opacity="1"></stop></linearGradient></defs><defs><linearGradient id="grad2_3" x1="0%" y1="0%" x2="66.7%" y2="100%"><stop offset="20%" stop-color="#e7f4ff" stop-opacity="1"></stop><stop offset="80%" stop-color="#d6f7ff" stop-opacity="1"></stop></linearGradient></defs><g transform="translate(900, 0)"><path d="M0 432.7C-56 423.8 -112 415 -163.4 394.5C-214.8 374 -261.6 341.8 -302.6 302.6C-343.7 263.4 -379 217.2 -399.7 165.6C-420.4 114 -426.6 57 -432.7 0L0 0Z" fill="#dff5ff"></path><path d="M0 324.5C-42 317.9 -84 311.2 -122.6 295.9C-161.1 280.5 -196.2 256.4 -227 227C-257.8 197.6 -284.3 162.9 -299.8 124.2C-315.3 85.5 -319.9 42.7 -324.5 0L0 0Z" fill="#ccf9ff"></path><path d="M0 216.3C-28 211.9 -56 207.5 -81.7 197.2C-107.4 187 -130.8 170.9 -151.3 151.3C-171.8 131.7 -189.5 108.6 -199.9 82.8C-210.2 57 -213.3 28.5 -216.3 0L0 0Z" fill="#b7fdff"></path><path d="M0 108.2C-14 106 -28 103.7 -40.9 98.6C-53.7 93.5 -65.4 85.5 -75.7 75.7C-85.9 65.9 -94.8 54.3 -99.9 41.4C-105.1 28.5 -106.6 14.2 -108.2 0L0 0Z" fill="#afffff"></path></g><g transform="translate(0, 600)"><path d="M0 -432.7C40 -389.5 80.1 -346.3 137.8 -332.6C195.5 -318.9 270.9 -334.8 305.9 -305.9C341 -277.1 335.8 -203.5 350.2 -145C364.5 -86.6 398.6 -43.3 432.7 0L0 0Z" fill="#dff5ff"></path><path d="M0 -324.5C30 -292.1 60 -259.7 103.3 -249.4C146.6 -239.2 203.2 -251.1 229.5 -229.5C255.8 -207.8 251.8 -152.6 262.6 -108.8C273.4 -64.9 299 -32.5 324.5 0L0 0Z" fill="#ccf9ff"></path><path d="M0 -216.3C20 -194.7 40 -173.1 68.9 -166.3C97.7 -159.5 135.4 -167.4 153 -153C170.5 -138.5 167.9 -101.7 175.1 -72.5C182.3 -43.3 199.3 -21.6 216.3 0L0 0Z" fill="#b7fdff"></path><path d="M0 -108.2C10 -97.4 20 -86.6 34.4 -83.1C48.9 -79.7 67.7 -83.7 76.5 -76.5C85.3 -69.3 83.9 -50.9 87.5 -36.3C91.1 -21.6 99.7 -10.8 108.2 0L0 0Z" fill="#afffff"></path></g></svg>