<svg id="visual" viewBox="0 0 900 450" width="900" height="450" xmlns="http://www.w3.org/2000/svg" xmlns:xlink="http://www.w3.org/1999/xlink" version="1.1"><rect x="0" y="0" width="900" height="450" fill="#8d9398"></rect><defs><linearGradient id="grad1_0" x1="50%" y1="0%" x2="100%" y2="100%"><stop offset="10%" stop-color="#63707c" stop-opacity="1"></stop><stop offset="90%" stop-color="#63707c" stop-opacity="1"></stop></linearGradient></defs><defs><linearGradient id="grad1_1" x1="50%" y1="0%" x2="100%" y2="100%"><stop offset="10%" stop-color="#63707c" stop-opacity="1"></stop><stop offset="90%" stop-color="#8d9398" stop-opacity="1"></stop></linearGradient></defs><defs><linearGradient id="grad2_0" x1="0%" y1="0%" x2="50%" y2="100%"><stop offset="10%" stop-color="#63707c" stop-opacity="1"></stop><stop offset="90%" stop-color="#63707c" stop-opacity="1"></stop></linearGradient></defs><defs><linearGradient id="grad2_1" x1="0%" y1="0%" x2="50%" y2="100%"><stop offset="10%" stop-color="#8d9398" stop-opacity="1"></stop><stop offset="90%" stop-color="#63707c" stop-opacity="1"></stop></linearGradient></defs><g transform="translate(900, 0)"><path d="M0 247.5C-25.8 243.8 -51.5 240.1 -75.4 232.1C-99.3 224 -121.3 211.7 -143.4 197.4C-165.5 183.1 -187.8 167 -200.2 145.5C-212.7 124 -215.3 97.1 -221.6 72C-227.8 46.9 -237.7 23.4 -247.5 0L0 0Z" fill="#78818a"></path><path d="M0 123.8C-12.9 121.9 -25.8 120 -37.7 116C-49.6 112 -60.6 105.8 -71.7 98.7C-82.8 91.6 -93.9 83.5 -100.1 72.7C-106.3 62 -107.7 48.6 -110.8 36C-113.9 23.4 -118.8 11.7 -123.7 0L0 0Z" fill="#63707c"></path></g><g transform="translate(0, 450)"><path d="M0 -247.5C25.8 -245.2 51.6 -242.9 76.5 -235.4C101.4 -227.9 125.4 -215.2 142.8 -196.6C160.2 -178 171 -153.6 181.2 -131.7C191.4 -109.8 201.1 -90.4 212.1 -68.9C223 -47.4 235.3 -23.7 247.5 0L0 0Z" fill="#78818a"></path><path d="M0 -123.7C12.9 -122.6 25.8 -121.4 38.2 -117.7C50.7 -113.9 62.7 -107.6 71.4 -98.3C80.1 -89 85.5 -76.8 90.6 -65.8C95.7 -54.9 100.6 -45.2 106 -34.5C111.5 -23.7 117.6 -11.8 123.8 0L0 0Z" fill="#63707c"></path></g></svg>